HIERARCHY
ROOT Hips
{
	OFFSET 0.00000 0.00000 0.00000
	CHANNELS 6 Xposition Yposition Zposition Zrotation Yrotation Xrotation 
	JOINT LHipJoint
	{
		OFFSET 0 0 0
		CHANNELS 3 Zrotation Yrotation Xrotation
		JOINT LeftUpLeg
		{
			OFFSET 1.92384 -1.64427 0.83032
			CHANNELS 3 Zrotation Yrotation Xrotation
			JOINT LeftLeg
			{
				OFFSET 2.52872 -6.94761 0.00000
				CHANNELS 3 Zrotation Yrotation Xrotation
				JOINT LeftFoot
				{
					OFFSET 2.51827 -6.91890 0.00000
					CHANNELS 3 Zrotation Yrotation Xrotation
					JOINT LeftToeBase
					{
						OFFSET 0.22757 -0.62524 2.06528
						CHANNELS 3 Zrotation Yrotation Xrotation
						End Site
						{
							OFFSET 0.00000 -0.00000 1.08218
						}
					}
				}
			}
		}
	}
	JOINT RHipJoint
	{
		OFFSET 0 0 0
		CHANNELS 3 Zrotation Yrotation Xrotation
		JOINT RightUpLeg
		{
			OFFSET -2.09517 -1.64427 0.83032
			CHANNELS 3 Zrotation Yrotation Xrotation
			JOINT RightLeg
			{
				OFFSET -2.55173 -7.01082 0.00000
				CHANNELS 3 Zrotation Yrotation Xrotation
				JOINT RightFoot
				{
					OFFSET -2.50265 -6.87598 0.00000
					CHANNELS 3 Zrotation Yrotation Xrotation
					JOINT RightToeBase
					{
						OFFSET -0.22612 -0.62126 1.98677
						CHANNELS 3 Zrotation Yrotation Xrotation
						End Site
						{
							OFFSET -0.00000 -0.00000 1.04433
						}
					}
				}
			}
		}
	}
	JOINT LowerBack
	{
		OFFSET 0 0 0
		CHANNELS 3 Zrotation Yrotation Xrotation
		JOINT Spine
		{
			OFFSET 0.02839 1.68926 0.31690
			CHANNELS 3 Zrotation Yrotation Xrotation
			JOINT Spine1
			{
				OFFSET -0.01522 1.70183 0.21192
				CHANNELS 3 Zrotation Yrotation Xrotation
				JOINT Neck
				{
					OFFSET 0 0 0
					CHANNELS 3 Zrotation Yrotation Xrotation
					JOINT Neck1
					{
						OFFSET -0.04523 1.88988 0.10630
						CHANNELS 3 Zrotation Yrotation Xrotation
						JOINT Head
						{
							OFFSET 0.05172 1.78070 -0.56858
							CHANNELS 3 Zrotation Yrotation Xrotation
							End Site
							{
								OFFSET 0.01532 1.90392 -0.20434
							}
						}
					}
				}
				JOINT LeftShoulder
				{
					OFFSET 0 0 0
					CHANNELS 3 Zrotation Yrotation Xrotation
					JOINT LeftArm
					{
						OFFSET 3.25522 0.75486 0.22086
						CHANNELS 3 Zrotation Yrotation Xrotation
						JOINT LeftForeArm
						{
							OFFSET 4.85645 -0.00000 0.00000
							CHANNELS 3 Zrotation Yrotation Xrotation
							JOINT LeftHand
							{
								OFFSET 2.79874 -0.00000 0.00000
								CHANNELS 3 Zrotation Yrotation Xrotation
								JOINT LeftFingerBase
								{
									OFFSET 0 0 0
									CHANNELS 3 Zrotation Yrotation Xrotation
									JOINT LeftHandIndex1
									{
										OFFSET 0.57340 -0.00000 0.00000
										CHANNELS 3 Zrotation Yrotation Xrotation
										End Site
										{
											OFFSET 0.46229 -0.00000 0.00000
										}
									}
								}
								JOINT LThumb
								{
									OFFSET 0 0 0
									CHANNELS 3 Zrotation Yrotation Xrotation
									End Site
									{
										OFFSET 0.46935 -0.00000 0.46935
									}
								}
							}
						}
					}
				}
				JOINT RightShoulder
				{
					OFFSET 0 0 0
					CHANNELS 3 Zrotation Yrotation Xrotation
					JOINT RightArm
					{
						OFFSET -3.29079 0.52751 0.36356
						CHANNELS 3 Zrotation Yrotation Xrotation
						JOINT RightForeArm
						{
							OFFSET -4.67018 -0.00000 0.00000
							CHANNELS 3 Zrotation Yrotation Xrotation
							JOINT RightHand
							{
								OFFSET -2.65534 -0.00000 0.00000
								CHANNELS 3 Zrotation Yrotation Xrotation
								JOINT RightFingerBase
								{
									OFFSET 0 0 0
									CHANNELS 3 Zrotation Yrotation Xrotation
									JOINT RightHandIndex1
									{
										OFFSET -0.59407 -0.00000 0.00000
										CHANNELS 3 Zrotation Yrotation Xrotation
										End Site
										{
											OFFSET -0.47895 -0.00000 0.00000
										}
									}
								}
								JOINT RThumb
								{
									OFFSET 0 0 0
									CHANNELS 3 Zrotation Yrotation Xrotation
									End Site
									{
										OFFSET -0.48627 -0.00000 0.48627
									}
								}
							}
						}
					}
				}
			}
		}
	}
}
MOTION
Frames: 14
Frame Time: .0083333
4.1714 17.0938 44.4218 0.4599 22.1990 35.7971 0.0000 0.0000 0.0000 -8.5313 -30.3130 -39.6355 1.0961 6.6531 18.6915 -0.2677 10.4373 -9.2353 0.8979 -6.0392 -16.8983 0.0000 0.0000 0.0000 10.0355 22.9643 -38.6950 -1.4911 -7.7142 21.8493 -0.1468 -13.8634 -21.2957 -0.0000 0.0236 -0.0648 2.2073 1.3583 -20.9118 -2.1918 1.7850 -16.2852 -3.3588 0.7445 -6.0947 18.8475 13.4546 -3.2836 -1.7258 17.4432 25.3797 -1.5421 9.7742 10.6116 0.0000 0.0000 0.0000 -55.4023 20.5769 90.6896 50.0377 -53.0107 -26.2042 -0.0000 0.0000 -7.0221 20.8791 31.8989 11.3961 -7.1250 0.0000 -0.0000 -13.6093 63.1484 -6.0525 0.0000 0.0000 0.0000 66.9752 -35.1541 73.0171 -53.9612 54.4733 -29.3687 0.0000 -0.0000 -25.9879 -23.9345 -33.5989 13.7999 7.1250 -0.0000 -0.0000 11.3397 -65.6582 -5.6904
4.1743 17.0913 44.4199 0.5184 22.3098 36.0070 0.0000 0.0000 0.0000 -8.3985 -30.4813 -39.8462 1.0888 6.6315 18.6281 -0.2721 10.4613 -9.1554 0.9005 -6.0477 -16.9228 0.0000 0.0000 0.0000 9.9176 22.9179 -38.9914 -1.5075 -7.7545 21.9709 -0.1541 -13.8589 -21.3659 -0.0000 0.0060 -0.0165 2.2416 1.3382 -21.0083 -2.2329 1.7553 -16.3544 -3.4276 0.7239 -6.1295 18.8379 13.4432 -3.3519 -1.7747 17.4241 25.3355 -1.5571 9.7570 10.6086 0.0000 0.0000 0.0000 -54.9062 21.0662 90.8520 51.3388 -53.5214 -27.2470 -0.0000 0.0000 -7.7711 20.7977 31.6075 11.2582 -7.1250 0.0000 -0.0000 -13.4807 62.8419 -5.8972 0.0000 0.0000 0.0000 67.0830 -35.5462 72.8198 -53.9552 54.4713 -29.3638 0.0000 -0.0000 -25.9646 -23.2462 -33.1864 13.2313 7.1250 -0.0000 -0.0000 11.8377 -65.0561 -5.7787
4.1764 17.0889 44.4180 0.5733 22.3767 36.2048 0.0000 0.0000 0.0000 -8.2832 -30.6226 -40.0469 1.0827 6.6135 18.5753 -0.2772 10.5005 -9.0891 0.9027 -6.0548 -16.9434 0.0000 0.0000 0.0000 9.7946 22.8878 -39.2791 -1.5235 -7.7936 22.0889 -0.1611 -13.8414 -21.4153 -0.0000 -0.0043 0.0119 2.2531 1.3293 -21.0896 -2.2784 1.7431 -16.4152 -3.4859 0.7140 -6.1608 18.8361 13.4269 -3.4503 -1.8320 17.3927 25.2980 -1.5755 9.7333 10.6139 -0.0000 -0.0000 0.0000 -54.3537 21.5547 91.0217 52.8591 -54.0855 -28.4739 -0.0000 0.0000 -8.4942 20.5069 31.2305 10.9748 -7.1250 0.0000 -0.0000 -13.5320 62.3974 -5.7785 -0.0000 -0.0000 0.0000 67.1727 -35.9507 72.5708 -54.0696 54.5105 -29.4569 0.0000 -0.0000 -26.0567 -22.3445 -32.6480 12.5028 7.1250 -0.0000 -0.0000 12.4830 -64.2762 -5.8722
4.1776 17.0865 44.4157 0.6264 22.3950 36.3886 0.0000 0.0000 0.0000 -8.1907 -30.7353 -40.2343 1.0779 6.5992 18.5334 -0.2831 10.5552 -9.0383 0.9028 -6.0551 -16.9443 0.0000 0.0000 0.0000 9.6611 22.8788 -39.5569 -1.5391 -7.8317 22.2039 -0.1673 -13.8136 -21.4426 -0.0000 -0.0086 0.0235 2.2335 1.3252 -21.1478 -2.3241 1.7416 -16.4690 -3.5254 0.7122 -6.1951 18.8425 13.4054 -3.5755 -1.8917 17.3482 25.2742 -1.5952 9.7037 10.6290 -0.0000 0.0000 0.0000 -53.7563 22.0463 91.1961 54.5650 -54.6786 -29.8608 -0.0000 0.0000 -9.1276 20.0087 30.7606 10.5500 -7.1250 0.0000 -0.0000 -13.7547 61.8104 -5.6848 -0.0000 0.0000 0.0000 67.2296 -36.3527 72.2984 -54.2644 54.5770 -29.6156 0.0000 -0.0000 -26.2086 -21.1663 -31.9580 11.5820 7.1250 -0.0000 -0.0000 13.3229 -63.2820 -5.9645
4.1779 17.0842 44.4134 0.6734 22.3745 36.5554 0.0000 0.0000 0.0000 -8.1141 -30.8208 -40.4080 1.0745 6.5891 18.5035 -0.2894 10.6202 -9.0025 0.9015 -6.0511 -16.9326 0.0000 0.0000 0.0000 9.5258 22.8906 -39.8183 -1.5541 -7.8681 22.3141 -0.1728 -13.7794 -21.4552 -0.0000 -0.0066 0.0182 2.1882 1.3252 -21.1895 -2.3674 1.7489 -16.5153 -3.5466 0.7173 -6.2281 18.8555 13.3818 -3.7189 -1.9549 17.2971 25.2609 -1.6163 9.6711 10.6518 0.0000 0.0000 0.0000 -53.1188 22.5356 91.3908 56.4199 -55.2779 -31.3799 -0.0000 0.0000 -9.6318 19.3445 30.1933 10.0129 -7.1250 0.0000 -0.0000 -14.0971 61.0904 -5.5887 0.0000 0.0000 0.0000 67.2456 -36.7510 72.0249 -54.5209 54.6637 -29.8248 0.0000 -0.0000 -26.3920 -19.7613 -31.0873 10.5090 7.1250 -0.0000 -0.0000 14.2710 -62.0673 -5.9896
4.1776 17.0821 44.4115 0.7122 22.3310 36.7043 0.0000 0.0000 0.0000 -8.0464 -30.8863 -40.5668 1.0720 6.5817 18.4820 -0.2958 10.6910 -8.9754 0.9001 -6.0464 -16.9191 0.0000 0.0000 0.0000 9.3976 22.9168 -40.0557 -1.5678 -7.9009 22.4134 -0.1774 -13.7445 -21.4575 -0.0000 0.0005 -0.0015 2.1267 1.3263 -21.2198 -2.4055 1.7599 -16.5555 -3.5524 0.7260 -6.2597 18.8713 13.3561 -3.8726 -2.0155 17.2401 25.2604 -1.6367 9.6364 10.6806 0.0000 0.0000 0.0000 -52.4536 23.0244 91.6106 58.3940 -55.8666 -33.0082 -0.0000 0.0000 -9.9855 18.5801 29.5636 9.4170 -7.1250 0.0000 -0.0000 -14.5090 60.2905 -5.4793 0.0000 0.0000 0.0000 67.2096 -37.1460 71.7903 -54.8359 54.7690 -30.0819 0.0000 -0.0000 -26.5950 -18.2378 -30.0272 9.3634 7.1250 -0.0000 -0.0000 15.2015 -60.6595 -5.8818
4.1768 17.0800 44.4102 0.7433 22.2730 36.8391 0.0000 0.0000 0.0000 -7.9794 -30.9397 -40.7186 1.0706 6.5777 18.4701 -0.3025 10.7666 -8.9570 0.8976 -6.0383 -16.8955 0.0000 0.0000 0.0000 9.2766 22.9557 -40.2693 -1.5793 -7.9285 22.4971 -0.1812 -13.7116 -21.4547 -0.0000 0.0046 -0.0127 2.0511 1.3241 -21.2495 -2.4350 1.7685 -16.5894 -3.5410 0.7355 -6.2845 18.8881 13.3303 -4.0315 -2.0714 17.1811 25.2714 -1.6553 9.6014 10.7142 0.0000 0.0000 0.0000 -51.7776 23.5086 91.8567 60.4516 -56.4291 -34.7171 -0.0000 0.0000 -10.1983 17.7809 28.9598 8.8264 -7.1250 0.0000 -0.0000 -14.9766 59.5141 -5.3821 0.0000 0.0000 0.0000 67.1092 -37.5344 71.6406 -55.2259 54.8974 -30.4007 0.0000 -0.0000 -26.8184 -16.7675 -28.7958 8.2578 7.1250 -0.0000 -0.0000 15.9550 -59.1225 -5.5943
4.1762 17.0782 44.4103 0.7528 22.2354 36.9593 0.0000 0.0000 0.0000 -7.8829 -30.9953 -40.8707 1.0703 6.5767 18.4673 -0.3090 10.8408 -8.9408 0.8964 -6.0342 -16.8838 0.0000 0.0000 0.0000 9.1950 22.9888 -40.4546 -1.5884 -7.9503 22.5631 -0.1849 -13.6810 -21.4540 -0.0000 0.0077 -0.0213 1.9923 1.3167 -21.3044 -2.4501 1.7675 -16.6128 -3.5241 0.7397 -6.2855 18.9044 13.3055 -4.1956 -2.1202 17.1211 25.2987 -1.6707 9.5670 10.7542 0.0000 -0.0000 0.0000 -51.1019 23.9888 92.1202 62.5626 -56.9550 -36.4814 -0.0000 0.0000 -10.2941 17.0648 28.4329 8.3153 -7.1250 0.0000 -0.0000 -15.4038 58.8383 -5.2897 0.0000 -0.0000 0.0000 66.9411 -37.9173 71.6005 -55.7127 55.0548 -30.7994 0.0000 -0.0000 -27.0493 -15.4854 -27.4378 7.2751 7.1250 -0.0000 -0.0000 16.4440 -57.5284 -5.1374
4.1758 17.0768 44.4113 0.7497 22.2136 37.0682 0.0000 0.0000 0.0000 -7.7809 -31.0411 -41.0170 1.0713 6.5796 18.4758 -0.3138 10.8977 -8.9354 0.8952 -6.0305 -16.8729 0.0000 0.0000 0.0000 9.1405 23.0142 -40.6169 -1.5953 -7.9666 22.6127 -0.1882 -13.6532 -21.4525 -0.0000 0.0090 -0.0247 1.9430 1.3025 -21.3783 -2.4524 1.7561 -16.6267 -3.4994 0.7389 -6.2670 18.9161 13.2816 -4.3641 -2.1616 17.0610 25.3425 -1.6822 9.5332 10.8001 -0.0000 -0.0000 0.0000 -50.4439 24.4628 92.3875 64.6872 -57.4348 -38.2672 -0.0000 0.0000 -10.3116 16.4930 28.0448 7.9250 -7.1250 0.0000 -0.0000 -15.7646 58.3342 -5.2256 -0.0000 -0.0000 0.0000 66.7078 -38.2939 71.6799 -56.3157 55.2455 -31.2942 0.0000 -0.0000 -27.2571 -14.4852 -26.0079 6.4630 7.1250 -0.0000 -0.0000 16.6312 -55.9417 -4.5541
4.1755 17.0755 44.4126 0.7407 22.2014 37.1653 0.0000 0.0000 0.0000 -7.6807 -31.0808 -41.1572 1.0735 6.5864 18.4956 -0.3175 10.9428 -8.9359 0.8951 -6.0300 -16.8714 0.0000 0.0000 0.0000 9.1025 23.0346 -40.7583 -1.6005 -7.9790 22.6503 -0.1908 -13.6298 -21.4493 -0.0000 0.0071 -0.0196 1.8945 1.2767 -21.4625 -2.4398 1.7290 -16.6315 -3.4611 0.7312 -6.2339 18.9285 13.2618 -4.5299 -2.1987 17.0068 25.4029 -1.6911 9.5030 10.8522 0.0000 0.0000 0.0000 -49.8255 24.9408 92.6149 66.7819 -57.8617 -40.0369 -0.0000 0.0000 -10.2803 16.1068 27.8002 7.6702 -7.1250 0.0000 -0.0000 -16.0183 58.0125 -5.1878 0.0000 0.0000 0.0000 66.4087 -38.6598 71.8713 -57.0426 55.4690 -31.8923 0.0000 -0.0000 -27.3773 -13.7460 -24.5615 5.8060 7.1250 -0.0000 -0.0000 16.5890 -54.4022 -3.9141
4.1751 17.0744 44.4140 0.7323 22.1976 37.2495 0.0000 0.0000 0.0000 -7.5936 -31.1149 -41.2828 1.0770 6.5967 18.5260 -0.3197 10.9731 -8.9466 0.8943 -6.0274 -16.8640 0.0000 0.0000 0.0000 9.0757 23.0454 -40.8820 -1.6053 -7.9905 22.6852 -0.1935 -13.6066 -21.4474 -0.0000 0.0043 -0.0118 1.8452 1.2425 -21.5463 -2.4181 1.6912 -16.6276 -3.4139 0.7185 -6.1920 18.9387 13.2436 -4.7017 -2.2317 16.9540 25.4874 -1.6970 9.4743 10.9142 0.0000 -0.0000 0.0000 -49.2531 25.4164 92.7830 68.7941 -58.2307 -41.7443 -0.0000 0.0000 -10.2405 15.8955 27.6369 7.5250 -7.1250 0.0000 -0.0000 -16.1387 57.8088 -5.1484 0.0000 -0.0000 0.0000 66.0589 -39.0183 72.1324 -57.8797 55.7179 -32.5829 0.0000 -0.0000 -27.3342 -13.1883 -23.1483 5.2632 7.1250 -0.0000 -0.0000 16.4304 -52.9345 -3.2782
4.1749 17.0732 44.4151 0.7346 22.2055 37.3265 0.0000 0.0000 0.0000 -7.5222 -31.1565 -41.3951 1.0810 6.6086 18.5607 -0.3211 10.9941 -8.9595 0.8929 -6.0228 -16.8506 0.0000 0.0000 0.0000 9.0473 23.0440 -40.9957 -1.6108 -8.0035 22.7247 -0.1963 -13.5880 -21.4527 -0.0000 0.0028 -0.0076 1.7917 1.1947 -21.6267 -2.3881 1.6360 -16.6171 -3.3578 0.6978 -6.1453 18.9493 13.2272 -4.8737 -2.2645 16.9050 25.5952 -1.7017 9.4479 10.9856 0.0000 -0.0000 0.0000 -48.7387 25.9019 92.8478 70.7001 -58.5447 -43.3675 -0.0000 0.0000 -10.2203 15.7972 27.4932 7.4411 -7.1250 0.0000 -0.0000 -16.1532 57.6486 -5.0905 0.0000 -0.0000 0.0000 65.6659 -39.3623 72.4241 -58.7964 55.9806 -33.3416 0.0000 -0.0000 -27.0571 -12.6619 -21.8150 4.7723 7.1250 -0.0000 -0.0000 16.3203 -51.5535 -2.6943
4.1750 17.0719 44.4159 0.7489 22.2305 37.3983 0.0000 0.0000 0.0000 -7.4606 -31.2137 -41.4958 1.0852 6.6209 18.5969 -0.3220 11.0100 -8.9711 0.8913 -6.0177 -16.8358 0.0000 0.0000 0.0000 9.0170 23.0284 -41.1020 -1.6173 -8.0189 22.7714 -0.2000 -13.5725 -21.4707 -0.0000 -0.0021 0.0058 1.7398 1.1369 -21.7032 -2.3534 1.5676 -16.6003 -3.2998 0.6705 -6.0940 18.9824 13.2058 -5.0218 -2.3333 16.8602 25.7011 -1.7230 9.4225 11.0583 0.0000 -0.0000 0.0000 -48.2816 26.3905 92.7930 72.4864 -58.8087 -44.8935 -0.0000 0.0000 -10.2579 15.7175 27.3009 7.3548 -7.1250 0.0000 -0.0000 -16.1196 57.4455 -5.0000 0.0000 -0.0000 0.0000 65.2476 -39.6901 72.6965 -59.7674 56.2476 -34.1476 0.0000 -0.0000 -26.5500 -12.1011 -20.5745 4.3089 7.1250 -0.0000 -0.0000 16.3158 -50.2614 -2.1663
4.1753 17.0706 44.4164 0.7731 22.2681 37.4610 0.0000 0.0000 0.0000 -7.4144 -31.2802 -41.5768 1.0892 6.6326 18.6315 -0.3226 11.0198 -8.9789 0.8901 -6.0135 -16.8236 0.0000 0.0000 0.0000 8.9876 22.9996 -41.1957 -1.6245 -8.0357 22.8225 -0.2035 -13.5621 -21.4935 -0.0000 -0.0038 0.0105 1.6918 1.0748 -21.7698 -2.3172 1.4931 -16.5778 -3.2435 0.6397 -6.0412 19.0221 13.1780 -5.1645 -2.4230 16.8128 25.8192 -1.7531 9.3949 11.1370 -0.0000 -0.0000 0.0000 -47.8800 26.8781 92.6105 74.1773 -59.0326 -46.3417 -0.0000 0.0000 -10.3928 15.5718 27.0207 7.2156 -7.1250 0.0000 -0.0000 -16.1031 57.1437 -4.8765 -0.0000 -0.0000 0.0000 64.8223 -40.0026 72.9112 -60.7793 56.5141 -34.9903 0.0000 -0.0000 -25.8833 -11.4757 -19.4312 3.8637 7.1250 -0.0000 -0.0000 16.4347 -49.0593 -1.6867
